<?xml version="1.0" encoding="UTF-8" standalone="no"?>
<!DOCTYPE svg PUBLIC "-//W3C//DTD SVG 1.1//EN" "http://www.w3.org/Graphics/SVG/1.1/DTD/svg11.dtd">
<svg xmlns="http://www.w3.org/2000/svg" version="1.1" viewBox="0.00 0.00 256.00 256.00">
<g stroke-width="2.00" fill="none" stroke-linecap="butt">
<path stroke="#828282" vector-effect="non-scaling-stroke" d="
  M 148.51 166.86
  Q 150.58 168.29 152.58 171.27
  Q 157.99 179.33 164.56 184.22
  Q 168.73 187.32 173.09 184.34
  Q 176.88 181.73 181.94 176.92
  C 185.37 173.65 188.18 171.46 192.55 167.68
  Q 192.63 167.61 195.66 165.51
  Q 199.86 162.58 196.62 157.53
  Q 192.75 151.49 189.91 146.90
  Q 185.39 139.59 185.42 130.25
  Q 185.54 95.67 185.45 79.22
  C 185.41 72.48 184.64 65.75 184.38 61.50
  C 183.80 52.14 181.67 43.94 176.63 36.84
  C 171.38 29.44 162.05 23.91 153.73 21.17
  Q 148.17 19.35 137.91 17.72
  Q 128.84 16.27 121.77 16.84
  C 107.60 17.97 92.09 21.29 81.03 29.55
  Q 64.95 41.57 61.12 61.51
  C 59.57 69.58 65.16 69.62 71.88 70.30
  C 77.84 70.90 82.91 71.16 88.71 71.99
  Q 93.11 72.62 97.14 71.67
  A 1.39 1.36 3.7 0 0 98.09 70.85
  L 103.30 57.95
  A 4.96 4.92 86.2 0 1 105.42 55.51
  L 114.39 50.33
  A 1.03 1.02 24.8 0 1 114.78 50.19
  Q 123.49 48.63 128.55 49.98
  C 135.21 51.76 140.56 55.76 141.63 62.58
  Q 142.69 69.38 143.51 76.25
  Q 143.81 78.73 143.43 80.19
  A 1.80 1.80 0.0 0 1 141.86 81.52
  Q 130.32 82.58 111.59 84.92
  C 103.86 85.88 95.09 88.25 89.69 90.45
  Q 78.19 95.13 70.31 102.83
  Q 60.16 112.75 57.15 127.44
  C 54.31 141.32 55.74 158.38 63.95 169.96
  C 74.13 184.30 94.50 189.22 110.95 186.41
  C 119.83 184.90 127.01 182.95 134.42 177.98
  C 140.13 174.16 143.90 171.61 147.62 166.98
  A 0.66 0.66 0.0 0 1 148.51 166.86"
/>
<path stroke="#ffd380" vector-effect="non-scaling-stroke" d="
  M 228.85 186.86
  Q 221.77 185.72 212.76 186.04
  C 206.63 186.25 200.24 189.00 194.88 191.38
  Q 192.68 192.35 191.66 193.75
  A 2.44 2.19 -59.0 0 0 192.34 197.28
  Q 194.17 198.12 196.39 197.57
  Q 205.80 195.23 211.50 194.94
  C 218.57 194.58 222.15 195.68 220.22 203.74
  Q 218.80 209.73 217.25 215.66
  C 216.53 218.40 215.18 220.32 214.59 222.62
  A 1.85 1.46 -76.1 0 0 215.57 224.79
  Q 216.69 225.05 218.05 224.30
  C 222.38 221.92 223.60 219.38 225.98 214.66
  Q 232.05 202.65 230.67 188.80
  A 2.19 2.18 -88.3 0 0 228.85 186.86"
/>
<path stroke="#ffd380" vector-effect="non-scaling-stroke" d="
  M 20.33 191.25
  C 20.09 194.32 21.78 196.91 24.42 198.96
  Q 26.52 200.60 35.06 208.54
  Q 37.02 210.37 48.86 218.97
  Q 55.87 224.07 63.64 227.89
  Q 72.13 232.07 77.30 234.38
  C 81.28 236.17 86.27 237.26 89.97 238.72
  Q 94.44 240.48 99.65 241.28
  Q 113.48 243.41 124.19 243.52
  C 139.73 243.68 155.67 240.65 171.50 234.75
  Q 193.31 226.61 210.16 211.34
  C 211.70 209.94 212.13 208.62 212.39 206.65
  C 213.13 201.06 205.08 203.81 202.75 204.93
  Q 192.82 209.72 189.55 210.81
  C 180.66 213.78 173.08 216.77 163.85 218.34
  C 157.62 219.40 150.58 221.32 144.25 221.76
  Q 138.39 222.17 125.25 222.24
  Q 114.14 222.29 106.28 221.26
  Q 83.21 218.24 61.07 209.89
  C 53.24 206.94 42.96 201.24 37.10 198.44
  C 33.07 196.52 29.87 194.09 26.40 191.65
  Q 24.11 190.04 21.59 190.07
  A 1.28 1.27 -88.0 0 0 20.33 191.25"
/>
<path stroke="#828282" vector-effect="non-scaling-stroke" d="
  M 143.01 106.64
  C 140.61 104.11 136.15 105.53 132.74 106.50
  Q 131.68 106.80 127.72 107.26
  C 119.32 108.25 108.32 112.23 104.01 119.80
  Q 98.72 129.08 100.24 139.72
  C 101.14 146.09 103.86 149.67 108.87 153.68
  C 112.13 156.28 117.29 155.66 121.23 155.18
  C 127.04 154.46 130.59 151.91 134.01 147.25
  Q 138.00 141.81 140.59 135.19
  Q 141.83 132.03 142.20 124.73
  Q 142.50 119.00 143.75 110.77
  Q 143.77 110.66 143.48 107.66
  A 1.73 1.73 0.0 0 0 143.01 106.64"
/>
</g>
<path fill="#ffffff" d="
  M 207.14 0.00
  C 213.00 0.34 218.43 0.11 224.10 2.68
  Q 233.00 6.71 239.30 11.98
  Q 253.01 23.45 256.00 41.24
  L 256.00 215.21
  C 255.60 217.49 255.31 219.82 254.59 221.97
  Q 245.66 248.46 218.07 255.16
  Q 215.71 255.73 213.26 256.00
  L 43.12 256.00
  C 40.48 255.75 37.85 255.55 35.34 254.73
  Q 13.75 247.65 3.63 226.87
  Q 0.92 221.31 0.00 215.85
  L 0.00 44.62
  Q 0.24 38.44 2.48 32.98
  Q 6.99 21.99 13.84 15.11
  C 21.29 7.63 33.01 1.04 43.72 0.00
  L 207.14 0.00
  Z
  M 148.51 166.86
  Q 150.58 168.29 152.58 171.27
  Q 157.99 179.33 164.56 184.22
  Q 168.73 187.32 173.09 184.34
  Q 176.88 181.73 181.94 176.92
  C 185.37 173.65 188.18 171.46 192.55 167.68
  Q 192.63 167.61 195.66 165.51
  Q 199.86 162.58 196.62 157.53
  Q 192.75 151.49 189.91 146.90
  Q 185.39 139.59 185.42 130.25
  Q 185.54 95.67 185.45 79.22
  C 185.41 72.48 184.64 65.75 184.38 61.50
  C 183.80 52.14 181.67 43.94 176.63 36.84
  C 171.38 29.44 162.05 23.91 153.73 21.17
  Q 148.17 19.35 137.91 17.72
  Q 128.84 16.27 121.77 16.84
  C 107.60 17.97 92.09 21.29 81.03 29.55
  Q 64.95 41.57 61.12 61.51
  C 59.57 69.58 65.16 69.62 71.88 70.30
  C 77.84 70.90 82.91 71.16 88.71 71.99
  Q 93.11 72.62 97.14 71.67
  A 1.39 1.36 3.7 0 0 98.09 70.85
  L 103.30 57.95
  A 4.96 4.92 86.2 0 1 105.42 55.51
  L 114.39 50.33
  A 1.03 1.02 24.8 0 1 114.78 50.19
  Q 123.49 48.63 128.55 49.98
  C 135.21 51.76 140.56 55.76 141.63 62.58
  Q 142.69 69.38 143.51 76.25
  Q 143.81 78.73 143.43 80.19
  A 1.80 1.80 0.0 0 1 141.86 81.52
  Q 130.32 82.58 111.59 84.92
  C 103.86 85.88 95.09 88.25 89.69 90.45
  Q 78.19 95.13 70.31 102.83
  Q 60.16 112.75 57.15 127.44
  C 54.31 141.32 55.74 158.38 63.95 169.96
  C 74.13 184.30 94.50 189.22 110.95 186.41
  C 119.83 184.90 127.01 182.95 134.42 177.98
  C 140.13 174.16 143.90 171.61 147.62 166.98
  A 0.66 0.66 0.0 0 1 148.51 166.86
  Z
  M 228.85 186.86
  Q 221.77 185.72 212.76 186.04
  C 206.63 186.25 200.24 189.00 194.88 191.38
  Q 192.68 192.35 191.66 193.75
  A 2.44 2.19 -59.0 0 0 192.34 197.28
  Q 194.17 198.12 196.39 197.57
  Q 205.80 195.23 211.50 194.94
  C 218.57 194.58 222.15 195.68 220.22 203.74
  Q 218.80 209.73 217.25 215.66
  C 216.53 218.40 215.18 220.32 214.59 222.62
  A 1.85 1.46 -76.1 0 0 215.57 224.79
  Q 216.69 225.05 218.05 224.30
  C 222.38 221.92 223.60 219.38 225.98 214.66
  Q 232.05 202.65 230.67 188.80
  A 2.19 2.18 -88.3 0 0 228.85 186.86
  Z
  M 20.33 191.25
  C 20.09 194.32 21.78 196.91 24.42 198.96
  Q 26.52 200.60 35.06 208.54
  Q 37.02 210.37 48.86 218.97
  Q 55.87 224.07 63.64 227.89
  Q 72.13 232.07 77.30 234.38
  C 81.28 236.17 86.27 237.26 89.97 238.72
  Q 94.44 240.48 99.65 241.28
  Q 113.48 243.41 124.19 243.52
  C 139.73 243.68 155.67 240.65 171.50 234.75
  Q 193.31 226.61 210.16 211.34
  C 211.70 209.94 212.13 208.62 212.39 206.65
  C 213.13 201.06 205.08 203.81 202.75 204.93
  Q 192.82 209.72 189.55 210.81
  C 180.66 213.78 173.08 216.77 163.85 218.34
  C 157.62 219.40 150.58 221.32 144.25 221.76
  Q 138.39 222.17 125.25 222.24
  Q 114.14 222.29 106.28 221.26
  Q 83.21 218.24 61.07 209.89
  C 53.24 206.94 42.96 201.24 37.10 198.44
  C 33.07 196.52 29.87 194.09 26.40 191.65
  Q 24.11 190.04 21.59 190.07
  A 1.28 1.27 -88.0 0 0 20.33 191.25
  Z"
/>
<path fill="#040505" d="
  M 148.51 166.86
  A 0.66 0.66 0.0 0 0 147.62 166.98
  C 143.90 171.61 140.13 174.16 134.42 177.98
  C 127.01 182.95 119.83 184.90 110.95 186.41
  C 94.50 189.22 74.13 184.30 63.95 169.96
  C 55.74 158.38 54.31 141.32 57.15 127.44
  Q 60.16 112.75 70.31 102.83
  Q 78.19 95.13 89.69 90.45
  C 95.09 88.25 103.86 85.88 111.59 84.92
  Q 130.32 82.58 141.86 81.52
  A 1.80 1.80 0.0 0 0 143.43 80.19
  Q 143.81 78.73 143.51 76.25
  Q 142.69 69.38 141.63 62.58
  C 140.56 55.76 135.21 51.76 128.55 49.98
  Q 123.49 48.63 114.78 50.19
  A 1.03 1.02 24.8 0 0 114.39 50.33
  L 105.42 55.51
  A 4.96 4.92 86.2 0 0 103.30 57.95
  L 98.09 70.85
  A 1.39 1.36 3.7 0 1 97.14 71.67
  Q 93.11 72.62 88.71 71.99
  C 82.91 71.16 77.84 70.90 71.88 70.30
  C 65.16 69.62 59.57 69.58 61.12 61.51
  Q 64.95 41.57 81.03 29.55
  C 92.09 21.29 107.60 17.97 121.77 16.84
  Q 128.84 16.27 137.91 17.72
  Q 148.17 19.35 153.73 21.17
  C 162.05 23.91 171.38 29.44 176.63 36.84
  C 181.67 43.94 183.80 52.14 184.38 61.50
  C 184.64 65.75 185.41 72.48 185.45 79.22
  Q 185.54 95.67 185.42 130.25
  Q 185.39 139.59 189.91 146.90
  Q 192.75 151.49 196.62 157.53
  Q 199.86 162.58 195.66 165.51
  Q 192.63 167.61 192.55 167.68
  C 188.18 171.46 185.37 173.65 181.94 176.92
  Q 176.88 181.73 173.09 184.34
  Q 168.73 187.32 164.56 184.22
  Q 157.99 179.33 152.58 171.27
  Q 150.58 168.29 148.51 166.86
  Z
  M 143.01 106.64
  C 140.61 104.11 136.15 105.53 132.74 106.50
  Q 131.68 106.80 127.72 107.26
  C 119.32 108.25 108.32 112.23 104.01 119.80
  Q 98.72 129.08 100.24 139.72
  C 101.14 146.09 103.86 149.67 108.87 153.68
  C 112.13 156.28 117.29 155.66 121.23 155.18
  C 127.04 154.46 130.59 151.91 134.01 147.25
  Q 138.00 141.81 140.59 135.19
  Q 141.83 132.03 142.20 124.73
  Q 142.50 119.00 143.75 110.77
  Q 143.77 110.66 143.48 107.66
  A 1.73 1.73 0.0 0 0 143.01 106.64
  Z"
/>
<path fill="#ffffff" d="
  M 143.48 107.66
  Q 143.77 110.66 143.75 110.77
  Q 142.50 119.00 142.20 124.73
  Q 141.83 132.03 140.59 135.19
  Q 138.00 141.81 134.01 147.25
  C 130.59 151.91 127.04 154.46 121.23 155.18
  C 117.29 155.66 112.13 156.28 108.87 153.68
  C 103.86 149.67 101.14 146.09 100.24 139.72
  Q 98.72 129.08 104.01 119.80
  C 108.32 112.23 119.32 108.25 127.72 107.26
  Q 131.68 106.80 132.74 106.50
  C 136.15 105.53 140.61 104.11 143.01 106.64
  A 1.73 1.73 0.0 0 1 143.48 107.66
  Z"
/>
<path fill="#ffa600" d="
  M 228.85 186.86
  A 2.19 2.18 -88.3 0 1 230.67 188.80
  Q 232.05 202.65 225.98 214.66
  C 223.60 219.38 222.38 221.92 218.05 224.30
  Q 216.69 225.05 215.57 224.79
  A 1.85 1.46 -76.1 0 1 214.59 222.62
  C 215.18 220.32 216.53 218.40 217.25 215.66
  Q 218.80 209.73 220.22 203.74
  C 222.15 195.68 218.57 194.58 211.50 194.94
  Q 205.80 195.23 196.39 197.57
  Q 194.17 198.12 192.34 197.28
  A 2.44 2.19 -59.0 0 1 191.66 193.75
  Q 192.68 192.35 194.88 191.38
  C 200.24 189.00 206.63 186.25 212.76 186.04
  Q 221.77 185.72 228.85 186.86
  Z"
/>
<path fill="#ffa600" d="
  M 20.33 191.25
  A 1.28 1.27 -88.0 0 1 21.59 190.07
  Q 24.11 190.04 26.40 191.65
  C 29.87 194.09 33.07 196.52 37.10 198.44
  C 42.96 201.24 53.24 206.94 61.07 209.89
  Q 83.21 218.24 106.28 221.26
  Q 114.14 222.29 125.25 222.24
  Q 138.39 222.17 144.25 221.76
  C 150.58 221.32 157.62 219.40 163.85 218.34
  C 173.08 216.77 180.66 213.78 189.55 210.81
  Q 192.82 209.72 202.75 204.93
  C 205.08 203.81 213.13 201.06 212.39 206.65
  C 212.13 208.62 211.70 209.94 210.16 211.34
  Q 193.31 226.61 171.50 234.75
  C 155.67 240.65 139.73 243.68 124.19 243.52
  Q 113.48 243.41 99.65 241.28
  Q 94.44 240.48 89.97 238.72
  C 86.27 237.26 81.28 236.17 77.30 234.38
  Q 72.13 232.07 63.64 227.89
  Q 55.87 224.07 48.86 218.97
  Q 37.02 210.37 35.06 208.54
  Q 26.52 200.60 24.42 198.96
  C 21.78 196.91 20.09 194.32 20.33 191.25
  Z"
/>
</svg>