<svg xmlns="http://www.w3.org/2000/svg" fill="none" viewBox="0 0 128 128"><path fill="#95bf47" fill-rule="evenodd" d="m87.091 125.74-.285-109.678c-.739-.739-2.18-.516-2.743-.351l-3.752 1.163a26 26 0 0 0-1.796-4.418c-2.662-5.083-6.553-7.771-11.264-7.779h-.014c-.315 0-.626.03-.94.055l-.037.004a10 10 0 0 0-.424-.49C63.788 2.05 61.155.98 58.002 1.07c-6.078.176-12.13 4.572-17.042 12.38-3.456 5.496-6.078 12.398-6.828 17.74l-11.97 3.713c-3.522 1.108-3.631 1.217-4.096 4.542-.347 2.516-9.567 73.9-9.567 73.9l77.268 13.377zM61.776 6.085c-1.027-.676-2.23-.99-3.657-.962-9.384.271-17.569 14.947-19.657 24.726l8.99-2.786 1.605-.498c1.177-6.21 4.133-12.654 7.998-16.8a17.6 17.6 0 0 1 4.718-3.68zM53.5 25.186l12.903-4c.04-3.365-.326-8.339-2.008-11.85-1.792.74-3.299 2.034-4.381 3.193-2.9 3.12-5.267 7.878-6.51 12.657zm16.944-5.251 5.998-1.862c-.959-3.116-3.233-8.338-7.845-9.216 1.434 3.705 1.803 7.995 1.847 11.078" clip-rule="evenodd"/><path fill="#5e8e3e" d="M104.404 24.221c-.461-.036-9.391-.175-9.391-.175s-7.472-7.263-8.21-8.006a1.84 1.84 0 0 0-1.036-.475v111.141l33.481-8.335s-13.663-92.493-13.75-93.126a1.22 1.22 0 0 0-1.094-1.024"/><path fill="#fff" d="M67.211 41.48 63.32 56.05s-4.338-1.98-9.483-1.654c-7.541.476-7.622 5.241-7.545 6.437.41 6.51 17.529 7.936 18.49 23.197.758 12.007-6.36 20.224-16.614 20.868-12.306.779-19.083-6.492-19.083-6.492l2.608-11.11s6.82 5.153 12.277 4.806c3.57-.224 4.842-3.127 4.714-5.183-.538-8.495-14.479-7.998-15.36-21.96C32.585 53.2 40.29 41.296 57.3 40.22c6.554-.417 9.911 1.262 9.911 1.262"/></svg>